<?xml version="1.0" encoding="UTF-8"?>
<!DOCTYPE svg PUBLIC "-//W3C//DTD SVG 1.1//EN" "http://www.w3.org/Graphics/SVG/1.1/DTD/svg11.dtd">
<!-- Creator: CorelDRAW X8 -->
<svg xmlns="http://www.w3.org/2000/svg" xml:space="preserve" width="600mm" height="600mm" version="1.1" style="shape-rendering:geometricPrecision; text-rendering:geometricPrecision; image-rendering:optimizeQuality; fill-rule:evenodd; clip-rule:evenodd"
viewBox="0 0 60000 60000"
 xmlns:xlink="http://www.w3.org/1999/xlink">
 <defs>
  <style type="text/css">
   <![CDATA[
    .fil0 {fill:#663333}
    .fil1 {fill:#CCCCCC}
    .fil2 {fill:white}
   ]]>
  </style>
 </defs>
 <g id="Capa_x0020_1">
  <metadata id="CorelCorpID_0Corel-Layer"/>
  <rect class="fil0" width="60000" height="60000" rx="30000" ry="30000"/>
  <path class="fil1" d="M56734 35575c-398,925 -83,1439 -823,1705 -100,-720 -151,-1087 -584,-1574 -407,-459 -208,63 -306,-538l1713 407z"/>
  <path class="fil1" d="M19282 31207c690,-332 -114,-146 772,-292 558,-91 2611,-359 3367,-287 1512,144 821,46 2280,-59 731,-52 1470,284 2656,624 28,7 345,179 1152,175 821,-5 1172,-221 2115,-73 1478,231 2453,-628 4336,293 1257,-99 -415,-143 2322,-131 1759,9 925,27 2372,211 1636,208 229,-336 3072,429 1023,275 183,-86 569,397 718,-96 145,-40 729,-346l194 373c2178,-157 1642,22 1603,324l819 -225c1572,-214 2037,97 2947,-55 983,-164 668,-276 1948,-15 1033,210 658,214 194,612 2673,353 1195,230 1015,1891 -860,-310 -938,-547 -2474,-569 -430,186 -431,315 -921,393 -547,88 -1003,-17 -1585,91 -1149,212 -814,628 -2637,461l-63 -151c-84,-271 -51,-838 -1090,-839 -1287,0 -1519,360 -1796,790 -1205,-210 -53,79 -1420,-9 -813,-52 -913,-215 -1544,245 -334,-101 -72,-20 -314,-135 -1139,-540 815,275 -302,-149 -384,685 629,94 -91,598 -598,73 -354,85 -821,-58 65,-397 -2,116 254,-232l78 -127c11,-30 9,-225 5,-239l-1775 -273 -354 589c-301,315 -152,447 -414,576 -686,337 -2175,146 -2887,34 98,776 -1422,2092 -1969,2301 -560,214 -18,29 -657,144 -517,93 -115,4 -657,139 -2238,555 -1146,-96 -2339,-202 -704,-63 -773,173 -1102,-288 -356,-502 -21,-600 -2568,-445 -798,49 -3426,-82 -4641,330 -373,126 -608,271 -1146,404 -2586,641 -3020,1285 -3387,1383 -656,99 -2045,108 -1989,-405 544,-215 852,-38 1523,-187l978 -407c539,-248 901,-584 892,-1009 -3,-102 -183,-777 -206,-816 -624,158 -1856,421 -2571,428 -1211,-791 -581,-1895 -2392,-3010 -785,-483 -717,-440 -356,-1169l1058 -132c-272,-166 -342,-149 -621,-296 126,-567 416,-511 96,-950 464,-124 1266,-446 1621,-462 728,-32 1280,229 2079,-159 827,-401 758,-519 2050,-376 846,95 1483,183 1993,342z"/>
  <path class="fil2" d="M3311 23383c0,0 -101,-759 0,-959 100,-201 758,-1403 1073,-1532 315,-129 57,-801 286,-759 229,43 272,416 559,315 286,-100 1374,-315 1860,-214 487,100 4330,1395 8510,1023 4180,-372 8186,-467 11022,-29 5761,891 9549,483 15459,401 4123,-57 9947,1632 9783,2004 -164,372 -3920,-616 -8008,-658 -4088,-43 -12825,1517 -14600,1603 -1775,86 -5210,1431 -5067,2061 143,630 2290,3493 3235,3722 944,229 1946,3464 1918,3750 -29,286 86,630 -201,773 -286,143 -2548,29 -2548,29 0,0 -114,-487 659,-458 773,28 859,-287 859,-859 0,-573 -2978,-4395 -3980,-4066 -1002,330 -801,1632 -801,1632 334,268 1462,642 1002,802 0,0 -308,291 229,658 0,0 -2205,-57 -2405,-1202 -200,-1145 573,-2176 573,-2176 0,0 -888,-486 -1060,-1145 -171,-658 -2862,-258 -3263,-830 -401,-573 -401,-973 -2119,-973 -1446,0 -2585,-473 -2964,-473 -379,-1 -431,552 -445,910 -14,358 -799,450 -799,-94 0,-544 -1152,-258 -1145,-973 7,-716 -229,-974 -1317,-1775 -1088,-802 -1460,-945 -2891,-630 -1432,315 -2405,830 -3414,122z"/>
 </g>
</svg>
