<?xml version="1.0" encoding="UTF-8"?>
<!DOCTYPE svg PUBLIC "-//W3C//DTD SVG 1.1//EN" "http://www.w3.org/Graphics/SVG/1.1/DTD/svg11.dtd">
<!-- Creator: CorelDRAW X8 -->
<svg xmlns="http://www.w3.org/2000/svg" xml:space="preserve" width="297mm" height="200mm" version="1.1" style="shape-rendering:geometricPrecision; text-rendering:geometricPrecision; image-rendering:optimizeQuality; fill-rule:evenodd; clip-rule:evenodd"
viewBox="0 0 29700 20000"
 xmlns:xlink="http://www.w3.org/1999/xlink">
 <defs>
  <style type="text/css">
   <![CDATA[
    .fil1 {fill:#B3B3B3}
    .fil2 {fill:white}
    .fil0 {fill:white;fill-rule:nonzero}
   ]]>
  </style>
 </defs>
 <g id="Capa_x0020_1">
  <metadata id="CorelCorpID_0Corel-Layer"/>
  <path class="fil0" d="M4558 1117c45,-9 95,-15 151,-19 55,-5 111,-7 168,-9 56,-1 112,-3 168,-4 55,-2 107,-2 155,-2 207,0 383,35 528,106 144,71 262,172 353,304 90,132 156,290 195,475 40,184 60,390 60,617 0,204 -19,399 -58,587 -38,187 -102,351 -193,493 -91,142 -211,255 -360,340 -149,86 -335,128 -559,128 -37,0 -84,-1 -140,-2 -57,-1 -116,-4 -177,-9 -61,-4 -118,-7 -170,-10 -53,-3 -93,-7 -121,-13l0 -2982zm659 259c-28,0 -59,0 -91,0 -33,0 -65,2 -96,5 -31,2 -60,5 -87,8 -27,3 -49,6 -66,9l0 2425c11,2 32,4 61,6 30,1 61,3 94,4 33,2 64,3 94,4 29,2 51,3 65,3 156,0 287,-34 392,-103 105,-68 188,-159 249,-274 61,-115 104,-248 130,-400 25,-152 38,-313 38,-483 0,-150 -12,-298 -34,-442 -23,-145 -63,-273 -121,-385 -59,-112 -138,-203 -239,-272 -100,-70 -230,-105 -389,-105zm1638 -259l319 0 0 2978 -319 0 0 -2978zm1383 1089l-183 -468 -13 0 47 468 0 1889 -307 0 0 -3025 192 0 1102 1931 174 447 17 0 -47 -447 0 -1884 307 0 0 3025 -196 0 -1093 -1936zm1744 400c0,-505 81,-888 242,-1149 162,-261 409,-391 741,-391 178,0 330,36 455,108 125,73 226,175 304,309 78,133 135,295 172,485 37,190 56,402 56,638 0,505 -82,888 -245,1148 -163,261 -411,392 -742,392 -176,0 -327,-36 -451,-109 -125,-72 -227,-175 -307,-308 -79,-133 -137,-295 -172,-485 -35,-190 -53,-403 -53,-638zm336 0c0,167 12,326 36,476 24,151 62,282 113,396 51,113 118,204 200,272 82,68 181,102 298,102 212,0 374,-102 485,-306 110,-204 165,-518 165,-940 0,-165 -12,-322 -36,-472 -24,-151 -61,-283 -112,-398 -51,-115 -118,-207 -200,-275 -83,-68 -183,-102 -302,-102 -210,0 -371,102 -481,307 -111,204 -166,517 -166,940zm2067 1093c54,37 130,72 228,104 98,33 209,49 334,49 159,0 288,-39 387,-117 99,-78 149,-200 149,-368 0,-110 -28,-207 -85,-289 -57,-82 -128,-158 -213,-228 -85,-69 -176,-137 -274,-204 -98,-66 -189,-140 -275,-221 -85,-81 -155,-174 -212,-279 -57,-105 -85,-231 -85,-378 0,-239 71,-415 215,-530 143,-115 329,-172 559,-172 142,0 268,13 379,38 110,26 200,58 268,98l-102 281c-52,-32 -125,-60 -220,-85 -95,-26 -204,-39 -329,-39 -153,0 -267,38 -341,113 -73,75 -110,169 -110,283 0,99 28,187 85,264 57,76 127,149 213,217 85,68 176,137 274,206 98,70 189,147 274,232 85,85 156,181 213,289 57,108 85,236 85,383 0,250 -74,445 -221,587 -148,142 -356,213 -625,213 -171,0 -310,-16 -419,-47 -110,-31 -197,-67 -262,-106l110 -294zm2983 -438l-839 0 -238 834 -314 0 897 -3025 175 0 897 3025 -336 0 -242 -834zm-754 -277l678 0 -258 -924 -79 -450 -8 0 -83 458 -250 916zm2992 -1867l306 0 0 1995c0,360 -70,620 -211,781 -140,160 -339,240 -597,240 -301,0 -520,-78 -658,-234 -137,-156 -206,-396 -206,-719l0 -2063 319 0 0 1897c0,153 10,282 30,387 20,105 52,190 98,256 45,65 102,112 170,140 68,28 151,43 251,43 187,0 317,-66 389,-196 72,-131 109,-340 109,-630l0 -1897zm850 30c94,-23 197,-39 309,-49 112,-10 215,-15 308,-15 111,0 216,13 315,40 99,27 186,73 260,136 73,64 132,148 176,251 44,104 66,234 66,390 0,235 -49,424 -147,565 -98,142 -227,237 -389,285l162 158 587 1187 -370 0 -638 -1298 -320 -64 0 1362 -319 0 0 -2948zm319 1374l256 0c161,0 289,-50 383,-149 93,-99 140,-251 140,-455 0,-156 -39,-285 -117,-388 -78,-102 -194,-153 -347,-153 -56,0 -115,2 -176,7 -61,4 -107,10 -139,19l0 1119zm1787 -1404l319 0 0 2978 -319 0 0 -2978zm838 1489c0,-505 81,-888 243,-1149 161,-261 408,-391 740,-391 179,0 330,36 455,108 125,73 226,175 304,309 78,133 136,295 173,485 37,190 55,402 55,638 0,505 -81,888 -245,1148 -163,261 -410,392 -742,392 -176,0 -326,-36 -451,-109 -125,-72 -227,-175 -306,-308 -80,-133 -137,-295 -172,-485 -36,-190 -54,-403 -54,-638zm336 0c0,167 12,326 37,476 24,151 61,282 112,396 51,113 118,204 200,272 83,68 182,102 298,102 213,0 374,-102 485,-306 111,-204 166,-518 166,-940 0,-165 -12,-322 -36,-472 -24,-151 -62,-283 -113,-398 -51,-115 -118,-207 -200,-275 -82,-68 -183,-102 -302,-102 -210,0 -370,102 -481,307 -110,204 -166,517 -166,940zm2068 1093c54,37 130,72 228,104 97,33 209,49 334,49 158,0 287,-39 387,-117 99,-78 149,-200 149,-368 0,-110 -29,-207 -85,-289 -57,-82 -128,-158 -213,-228 -85,-69 -177,-137 -275,-204 -97,-66 -189,-140 -274,-221 -85,-81 -156,-174 -213,-279 -56,-105 -85,-231 -85,-378 0,-239 72,-415 215,-530 143,-115 330,-172 560,-172 141,0 268,13 378,38 111,26 200,58 268,98l-102 281c-51,-32 -124,-60 -219,-85 -95,-26 -205,-39 -330,-39 -153,0 -266,38 -340,113 -74,75 -111,169 -111,283 0,99 29,187 85,264 57,76 128,149 213,217 85,68 177,137 274,206 98,70 190,147 275,232 85,85 156,181 213,289 56,108 85,236 85,383 0,250 -74,445 -222,587 -147,142 -355,213 -625,213 -170,0 -310,-16 -419,-47 -109,-31 -196,-67 -262,-106l111 -294zm-17301 4021l-840 0 -238 834 -314 0 897 -3025 175 0 897 3025 -336 0 -241 -834zm-755 -276l678 0 -258 -925 -79 -450 -8 0 -83 458 -250 917zm1626 -1838c94,-23 196,-39 308,-49 112,-10 215,-15 309,-15 110,0 215,13 315,40 99,27 185,73 259,136 74,64 133,148 177,251 44,104 66,234 66,390 0,235 -49,424 -147,566 -98,141 -228,236 -389,285l161 157 587 1187 -370 0 -638 -1298 -319 -63 0 1361 -319 0 0 -2948zm319 1374l255 0c162,0 290,-50 383,-149 94,-99 141,-251 141,-455 0,-156 -39,-285 -117,-387 -78,-103 -194,-154 -347,-154 -57,0 -116,3 -177,7 -61,4 -107,10 -138,19l0 1119zm2425 89l821 0 0 1310c-79,74 -181,130 -306,169 -125,38 -251,57 -379,57 -159,0 -303,-30 -432,-89 -129,-60 -239,-153 -329,-279 -91,-126 -161,-286 -211,-479 -50,-193 -74,-424 -74,-693 0,-278 29,-514 89,-708 59,-195 140,-354 240,-477 101,-123 216,-213 345,-270 129,-57 261,-85 398,-85 136,0 250,9 342,27 92,19 171,44 236,75l-76 289c-57,-31 -124,-55 -202,-72 -78,-17 -169,-26 -271,-26 -99,0 -194,22 -285,64 -90,43 -172,113 -244,211 -73,98 -130,226 -173,385 -42,159 -63,354 -63,587 0,425 67,739 202,942 134,203 319,304 555,304 147,0 269,-35 366,-105l0 -860 -549 -84 0 -193zm1272 -1493l1323 0 0 293 -1004 0 0 1009 923 0 0 293 -923 0 0 1089 1025 0 0 294 -1344 0 0 -2978zm2280 1089l-183 -468 -12 0 46 468 0 1889 -306 0 0 -3025 192 0 1101 1932 175 446 17 0 -47 -446 0 -1885 306 0 0 3025 -195 0 -1094 -1936zm3404 -796l-732 0 0 2685 -319 0 0 -2685 -732 0 0 -293 1783 0 0 293zm395 -293l319 0 0 2978 -319 0 0 -2978zm1383 1089l-183 -468 -13 0 47 468 0 1889 -306 0 0 -3025 191 0 1102 1932 175 446 17 0 -47 -446 0 -1885 306 0 0 3025 -196 0 -1093 -1936zm1744 400c0,-505 81,-888 243,-1149 161,-261 408,-391 740,-391 179,0 330,36 455,108 125,73 226,175 304,309 78,133 136,295 173,485 37,190 55,402 55,638 0,505 -82,888 -245,1149 -163,260 -410,391 -742,391 -176,0 -326,-36 -451,-109 -125,-72 -227,-175 -306,-308 -80,-133 -137,-295 -173,-485 -35,-190 -53,-403 -53,-638zm336 0c0,167 12,326 37,476 24,151 61,283 112,396 51,113 118,204 200,272 82,68 182,102 298,102 213,0 374,-102 485,-306 111,-204 166,-518 166,-940 0,-165 -12,-322 -36,-472 -24,-151 -62,-283 -113,-398 -51,-115 -118,-206 -200,-275 -82,-68 -183,-102 -302,-102 -210,0 -370,102 -481,307 -110,204 -166,517 -166,940zm2068 1093c54,37 130,72 228,104 97,33 209,49 334,49 158,0 287,-39 387,-117 99,-78 149,-200 149,-368 0,-110 -29,-207 -86,-289 -56,-82 -127,-158 -212,-227 -85,-70 -177,-138 -275,-205 -97,-66 -189,-140 -274,-221 -85,-81 -156,-174 -213,-279 -56,-105 -85,-231 -85,-378 0,-238 72,-415 215,-530 143,-115 330,-172 559,-172 142,0 268,13 379,38 111,26 200,58 268,98l-102 281c-51,-31 -124,-60 -219,-85 -95,-26 -205,-39 -330,-39 -153,0 -266,38 -340,113 -74,75 -111,170 -111,283 0,99 29,187 85,264 57,76 128,149 213,217 85,68 177,137 274,206 98,70 190,147 275,232 85,85 156,181 213,289 56,108 85,236 85,383 0,250 -74,445 -222,587 -147,142 -356,213 -625,213 -170,0 -310,-16 -419,-47 -109,-31 -196,-67 -262,-106l111 -294z"/>
  <path class="fil1" d="M11060 14255c255,-123 -42,-54 285,-108 207,-34 966,-133 1245,-106 559,53 304,17 843,-22 270,-20 543,105 982,230 10,3 128,67 426,65 303,-2 433,-81 782,-27 546,86 907,-232 1603,109 464,-37 -154,-53 858,-49 650,3 342,10 877,78 605,77 85,-124 1136,159 378,101 67,-32 210,147 265,-36 53,-15 269,-128l72 137c805,-58 607,8 593,120l303 -83c581,-79 752,36 1089,-20 363,-61 247,-102 720,-6 382,78 243,79 72,226 988,131 442,86 375,699 -318,-114 -347,-202 -915,-210 -158,69 -159,117 -340,146 -202,32 -371,-7 -586,33 -425,78 -301,232 -975,171l-23 -56c-31,-101 -19,-310 -403,-310 -476,0 -562,133 -664,291 -446,-77 -19,30 -525,-3 -301,-19 -338,-79 -571,91 -123,-38 -26,-8 -116,-50 -421,-200 302,102 -111,-55 -143,253 232,35 -34,221 -221,27 -131,31 -304,-22 24,-146 0,43 94,-85l29 -47c4,-11 3,-83 2,-89l-656 -101 -131 218c-111,117 -56,165 -153,213 -254,125 -804,54 -1068,13 37,286 -525,773 -727,850 -207,79 -7,11 -243,54 -191,34 -43,1 -243,51 -827,205 -424,-35 -865,-75 -260,-23 -286,64 -407,-106 -132,-186 -8,-222 -950,-165 -295,19 -1266,-30 -1715,122 -138,47 -225,100 -424,150 -956,237 -1116,475 -1252,511 -243,37 -756,40 -735,-150 201,-79 315,-14 562,-69l362 -150c200,-92 333,-216 330,-373 -1,-38 -68,-288 -76,-302 -231,58 -686,155 -950,158 -448,-292 -215,-700 -885,-1112 -290,-179 -265,-163 -132,-433l392 -49c-101,-61 -127,-54 -230,-109 47,-210 154,-189 35,-351 172,-46 469,-165 600,-171 269,-12 473,85 768,-59 306,-148 280,-192 758,-139 313,35 549,68 737,127z"/>
  <path class="fil1" d="M24453 15870c-147,341 -30,531 -304,630 -37,-266 -56,-402 -216,-582 -150,-170 -77,23 -113,-199l633 151z"/>
  <path class="fil2" d="M5156 11362c0,0 -37,-280 0,-354 37,-74 280,-519 396,-567 117,-47 22,-296 106,-280 85,16 101,153 207,116 105,-37 508,-116 688,-79 179,37 1600,516 3145,378 1546,-137 3027,-172 4075,-10 2130,329 3530,178 5715,148 1524,-21 3677,603 3617,741 -61,137 -1449,-228 -2961,-244 -1511,-15 -4741,561 -5397,593 -656,32 -1926,529 -1873,762 52,233 846,1291 1195,1376 350,84 720,1280 710,1386 -11,106 31,233 -75,286 -105,53 -941,11 -941,11 0,0 -43,-180 243,-170 286,11 317,-106 317,-317 0,-212 -1100,-1625 -1471,-1503 -370,122 -296,603 -296,603 124,99 541,237 370,296 0,0 -113,108 85,244 0,0 -815,-21 -889,-445 -74,-423 212,-804 212,-804 0,0 -328,-180 -392,-423 -63,-244 -1058,-96 -1206,-307 -148,-212 -148,-360 -783,-360 -535,0 -956,-175 -1096,-175 -140,0 -160,204 -165,337 -5,132 -295,166 -295,-35 0,-201 -426,-95 -424,-360 3,-264 -84,-360 -486,-656 -403,-296 -540,-349 -1069,-233 -529,117 -889,307 -1262,45z"/>
 </g>
</svg>
